<svg width="238" height="227" viewBox="0 0 238 227" fill="none" xmlns="http://www.w3.org/2000/svg">
<path d="M113.085 4.14589C114.881 -1.38197 122.701 -1.38196 124.498 4.1459L148.427 77.7934C149.23 80.2655 151.534 81.9393 154.133 81.9393H231.571C237.383 81.9393 239.8 89.3769 235.098 92.7934L172.449 138.31C170.346 139.838 169.466 142.546 170.27 145.018L194.199 218.666C195.995 224.194 189.668 228.79 184.966 225.374L122.318 179.857C120.215 178.329 117.367 178.329 115.265 179.857L52.6162 225.374C47.9139 228.79 41.5871 224.194 43.3832 218.666L67.3127 145.018C68.1159 142.546 67.236 139.838 65.1331 138.31L2.48478 92.7933C-2.2175 89.3769 0.19917 81.9393 6.01151 81.9393H83.449C86.0484 81.9393 88.3521 80.2655 89.1554 77.7934L113.085 4.14589Z" fill="#DE02E1"/>
</svg>
